<?xml version="1.0" encoding="utf-8"?>
<!-- Generator: Adobe Illustrator 24.3.0, SVG Export Plug-In . SVG Version: 6.00 Build 0)  -->
<svg version="1.1" xmlns="http://www.w3.org/2000/svg" xmlns:xlink="http://www.w3.org/1999/xlink" x="0px" y="0px"
	 viewBox="0 0 329.4 112.5" style="enable-background:new 0 0 329.4 112.5;" xml:space="preserve">
<style type="text/css">
	.st0{clip-path:url(#SVGID_2_);}
	.st1{opacity:0.8;clip-path:url(#SVGID_4_);}
	.st2{clip-path:url(#SVGID_6_);fill:none;stroke:#D0E7C1;stroke-width:4;stroke-miterlimit:10;}
	.st3{clip-path:url(#SVGID_8_);fill:none;stroke:#D0E7C1;stroke-width:4;stroke-miterlimit:10;}
	.st4{fill:none;stroke:#D0E7C1;stroke-width:4;stroke-miterlimit:10;}
	.st5{clip-path:url(#SVGID_10_);fill:none;stroke:#D0E7C1;stroke-width:4;stroke-miterlimit:10;}
</style>
<g id="Layer_1">
	<g>
		<defs>
			<rect id="SVGID_1_" x="440.7" y="-370.1" width="639.8" height="423.3"/>
		</defs>
		<clipPath id="SVGID_2_">
			<use xlink:href="#SVGID_1_"  style="overflow:visible;"/>
		</clipPath>
		<g class="st0">
			<defs>
				<rect id="SVGID_3_" x="440.7" y="-370.1" width="639.8" height="423.3"/>
			</defs>
			<clipPath id="SVGID_4_">
				<use xlink:href="#SVGID_3_"  style="overflow:visible;"/>
			</clipPath>
			<g class="st1">
				<g>
					<defs>
						<rect id="SVGID_5_" x="587.7" y="-162.8" width="378.3" height="198"/>
					</defs>
					<clipPath id="SVGID_6_">
						<use xlink:href="#SVGID_5_"  style="overflow:visible;"/>
					</clipPath>
					<path class="st2" d="M924.2,32.1c1.1-6.7,1.6-13.7,1.6-20.7c0-77-66.7-139.4-148.9-139.4S627.9-65.6,627.9,11.4
						c0,7.1,0.6,14.2,1.7,21"/>
					<path class="st2" d="M859.6,32.7c2-6.8,3-13.9,3-21.3c0-44.3-38.4-80.3-85.8-80.3c-47.4,0-85.8,36-85.8,80.3
						c0,7.2,1,14.2,2.9,20.9"/>
					<path class="st2" d="M776.8,30.9c11.5,0,20.9-8.7,20.9-19.4c0-10.7-9.3-19.4-20.9-19.4C765.3-8,756,0.7,756,11.4
						C756,22.2,765.3,30.9,776.8,30.9z"/>
					<path class="st2" d="M945.5,32c0.9-6.7,1.4-13.6,1.4-20.6c0-88-76.2-159.3-170.1-159.3S606.7-76.5,606.7,11.4
						c0,7.1,0.5,14.1,1.5,21"/>
					<path class="st2" d="M902.5,33.4c1.4-7.1,2.1-14.5,2.1-22c0-66-57.2-119.6-127.8-119.6c-70.6,0-127.8,53.5-127.8,119.6
						c0,7.5,0.7,14.8,2.1,21.9"/>
					<path class="st2" d="M880.2,33c1.6-6.9,2.5-14.1,2.5-21.5c0-54.7-47.4-99.1-105.9-99.1c-58.5,0-105.9,44.4-105.9,99.1
						c0,7.4,0.9,14.7,2.5,21.7"/>
					<path class="st2" d="M834,33c2.9-6.7,4.5-14,4.5-21.6c0-31.8-27.6-57.6-61.6-57.6c-34,0-61.6,25.8-61.6,57.6
						c0,7.6,1.6,14.9,4.4,21.5"/>
					<path class="st2" d="M812.9,33c4.3-6.2,6.8-13.6,6.8-21.6c0-22.1-19.2-40-42.8-40c-23.6,0-42.8,17.9-42.8,40
						c0,7.5,2.2,14.5,6.1,20.5"/>
				</g>
			</g>
			<g class="st1">
				<g>
					<defs>
						<rect id="SVGID_7_" x="896.9" y="-337.3" width="157.8" height="372.5"/>
					</defs>
					<clipPath id="SVGID_8_">
						<use xlink:href="#SVGID_7_"  style="overflow:visible;"/>
					</clipPath>
					<path class="st3" d="M1032.8-322.4c-67.4,22.4-116.9,96.8-116.9,185.1c0,73.7,34.5,137.7,85,169.9"/>
					<path class="st3" d="M1035.8-273.5c-46.8,19.6-80.3,73.2-80.3,136.3c0,63.2,33.7,116.8,80.5,136.4"/>
					<path class="st3" d="M1036-247.1c-35.3,18.3-59.9,60.6-59.9,109.9c0,49.3,24.8,91.7,60.1,110"/>
					<path class="st3" d="M1036.5-222.3c-24.9,16.5-41.7,48.4-41.7,85.1c0,36.4,16.6,68.1,41.1,84.7"/>
					<path class="st3" d="M1036.1-188.5c-11.4,12.7-18.6,31-18.6,51.3c0,20,7,38.1,18.1,50.8"/>
					<path class="st3" d="M1036.1-298.7c-58,20.3-100.4,84.9-100.4,161.4c0,75.1,40.9,138.7,97.3,160.3"/>
				</g>
			</g>
			<g class="st1">
				<g>
					<path class="st4" d="M661-331.8c-1.4,8.5-2.1,17.2-2.1,26.1c0,88,71.3,159.3,159.3,159.3c88,0,159.3-71.3,159.3-159.3
						c0-8.8-0.7-17.4-2.1-25.8"/>
					<path class="st4" d="M701.6-332.6c-2,8.6-3,17.6-3,26.9c0,66,53.5,119.6,119.6,119.6s119.6-53.5,119.6-119.6
						c0-8.8-0.9-17.3-2.7-25.6"/>
					<path class="st4" d="M742.1-331.7c-2.8,8.2-4.3,16.9-4.3,26c0,44.3,36,80.3,80.3,80.3c44.3,0,80.3-36,80.3-80.3
						c0-8.9-1.4-17.4-4.1-25.4"/>
					<path class="st4" d="M787.4-331.3c-5.8,6.9-9.2,15.8-9.2,25.5c0,22.1,17.9,40,40,40s40-17.9,40-40c0-9.3-3.2-17.8-8.5-24.6"/>
					<path class="st4" d="M681.1-331.6c-1.6,8.4-2.4,17-2.4,25.9c0,77,62.4,139.4,139.4,139.4s139.4-62.4,139.4-139.4
						c0-8.8-0.8-17.5-2.4-25.9"/>
					<path class="st4" d="M722.6-332c-2.3,8.4-3.5,17.2-3.5,26.3c0,54.7,44.4,99.1,99.1,99.1c54.7,0,99.1-44.4,99.1-99.1
						c0-8.8-1.1-17.2-3.3-25.3"/>
					<path class="st4" d="M766.9-332.2c-4.1,7.9-6.4,16.9-6.4,26.5c0,31.8,25.8,57.6,57.6,57.6c31.8,0,57.6-25.8,57.6-57.6
						c0-9.3-2.2-18.1-6.1-25.8"/>
				</g>
			</g>
			<g class="st1">
				<g>
					<defs>
						<rect id="SVGID_9_" x="466.5" y="-346.3" width="232.6" height="319.6"/>
					</defs>
					<clipPath id="SVGID_10_">
						<use xlink:href="#SVGID_9_"  style="overflow:visible;"/>
					</clipPath>
					<path class="st5" d="M485.6-33.6c11.3,2.6,23.1,3.9,35.2,3.9c88,0,159.3-71.3,159.3-159.3c0-61.8-35.2-115.4-86.7-141.8"/>
					<path class="st5" d="M485.3-96.4c11,4.2,23,6.6,35.5,6.6c54.7,0,99.1-44.4,99.1-99.1S575.5-288,520.8-288
						c-12.5,0-24.5,2.3-35.6,6.6"/>
					<path class="st5" d="M485.2-117c10.7,5.3,22.8,8.3,35.6,8.3c44.3,0,80.3-36,80.3-80.3c0-44.3-36-80.3-80.3-80.3
						c-12.8,0-24.9,3-35.6,8.3"/>
					<path class="st5" d="M485.3-170.6c6.7,12.8,20.1,21.6,35.5,21.6c22.1,0,40-17.9,40-40s-17.9-40-40-40
						c-15.4,0-28.7,8.7-35.4,21.4"/>
					<path class="st5" d="M520.8-169.5c10.7,0,19.4-8.7,19.4-19.4c0-10.7-8.7-19.4-19.4-19.4s-19.4,8.7-19.4,19.4
						C501.4-178.2,510.1-169.5,520.8-169.5z"/>
					<path class="st5" d="M485.7-54c11.2,2.9,23,4.5,35.2,4.5c77,0,139.4-62.4,139.4-139.4c0-77-62.4-139.4-139.4-139.4
						c-10.2,0-20.2,1.1-29.8,3.2"/>
					<path class="st5" d="M485.5-74.7c11.2,3.4,23,5.3,35.3,5.3c66,0,119.6-53.5,119.6-119.6s-53.5-119.6-119.6-119.6
						c-12.2,0-23.9,1.8-35,5.2"/>
					<path class="st5" d="M593.4-330.7c-0.5-0.3-1-0.5-1.5-0.7"/>
					<path class="st5" d="M485.4-143.5c9.8,7.6,22.1,12.2,35.5,12.2c31.8,0,57.6-25.8,57.6-57.6c0-31.8-25.8-57.6-57.6-57.6
						c-13.2,0-25.4,4.4-35.1,11.9"/>
				</g>
			</g>
		</g>
	</g>
</g>
<g id="Layer_2">
	<g>
		<path class="st4" d="M72.6,56.3c0,8.2-6.7,14.9-14.9,14.9c-8.2,0-14.9-6.7-14.9-14.9c0-8.2,6.7-14.9,14.9-14.9
			C66,41.4,72.6,48,72.6,56.3z"/>
		<path class="st4" d="M81.8,56.3c0,13.3-10.8,24.1-24.1,24.1c-13.3,0-24.1-10.8-24.1-24.1c0-13.3,10.8-24.1,24.1-24.1
			C71,32.2,81.8,43,81.8,56.3z"/>
		<path class="st4" d="M91,56.3c0,18.4-14.9,33.3-33.3,33.3c-18.4,0-33.3-14.9-33.3-33.3C24.5,37.9,39.4,23,57.7,23
			C76.1,23,91,37.9,91,56.3z"/>
		<path class="st4" d="M100.9,56.3c0,23.8-19.3,43.2-43.2,43.2c-23.8,0-43.2-19.3-43.2-43.2c0-23.8,19.3-43.2,43.2-43.2
			C81.6,13.1,100.9,32.4,100.9,56.3z"/>
		<path class="st4" d="M110.8,56.3c0,29.3-23.7,53.1-53.1,53.1c-29.3,0-53.1-23.8-53.1-53.1c0-29.3,23.8-53.1,53.1-53.1
			C87.1,3.2,110.8,26.9,110.8,56.3z"/>
		<path class="st4" d="M179.4,56.3c0,8.2-6.7,14.9-14.9,14.9c-8.2,0-14.9-6.7-14.9-14.9c0-8.2,6.7-14.9,14.9-14.9
			C172.7,41.4,179.4,48,179.4,56.3z"/>
		<path class="st4" d="M188.6,56.3c0,13.3-10.8,24.1-24.1,24.1c-13.3,0-24.1-10.8-24.1-24.1c0-13.3,10.8-24.1,24.1-24.1
			C177.8,32.2,188.6,43,188.6,56.3z"/>
		<path class="st4" d="M197.8,56.3c0,18.4-14.9,33.3-33.3,33.3c-18.4,0-33.3-14.9-33.3-33.3c0-18.4,14.9-33.3,33.3-33.3
			C182.9,23,197.8,37.9,197.8,56.3z"/>
		<path class="st4" d="M207.7,56.3c0,23.8-19.3,43.2-43.2,43.2c-23.8,0-43.2-19.3-43.2-43.2c0-23.8,19.3-43.2,43.2-43.2
			C188.4,13.1,207.7,32.4,207.7,56.3z"/>
		<path class="st4" d="M217.6,56.3c0,29.3-23.7,53.1-53.1,53.1c-29.3,0-53.1-23.8-53.1-53.1c0-29.3,23.8-53.1,53.1-53.1
			C193.8,3.2,217.6,26.9,217.6,56.3z"/>
		<path class="st4" d="M286.5,56.3c0,8.2-6.7,14.9-14.9,14.9c-8.2,0-14.9-6.7-14.9-14.9c0-8.2,6.7-14.9,14.9-14.9
			C279.9,41.4,286.5,48,286.5,56.3z"/>
		<path class="st4" d="M295.8,56.3c0,13.3-10.8,24.1-24.1,24.1c-13.3,0-24.1-10.8-24.1-24.1c0-13.3,10.8-24.1,24.1-24.1
			C285,32.2,295.8,43,295.8,56.3z"/>
		<path class="st4" d="M304.9,56.3c0,18.4-14.9,33.3-33.3,33.3c-18.4,0-33.3-14.9-33.3-33.3c0-18.4,14.9-33.3,33.3-33.3
			C290,23,304.9,37.9,304.9,56.3z"/>
		<path class="st4" d="M314.8,56.3c0,23.8-19.3,43.2-43.2,43.2c-23.8,0-43.2-19.3-43.2-43.2c0-23.8,19.3-43.2,43.2-43.2
			C295.5,13.1,314.8,32.4,314.8,56.3z"/>
		<path class="st4" d="M324.7,56.3c0,29.3-23.7,53.1-53.1,53.1c-29.3,0-53.1-23.8-53.1-53.1c0-29.3,23.8-53.1,53.1-53.1
			C301,3.2,324.7,26.9,324.7,56.3z"/>
	</g>
	<g>
		
			<image style="overflow:visible;" width="1422" height="531" xlink:href="12A9A462188F936E.png"  transform="matrix(0.24 0 0 0.24 -5.998 -7.4885)">
		</image>
		<g>
			<g>
				<path class="st4" d="M72.6,56.3c0,8.2-6.7,14.9-14.9,14.9c-8.2,0-14.9-6.7-14.9-14.9c0-8.2,6.7-14.9,14.9-14.9
					C66,41.4,72.6,48,72.6,56.3z"/>
				<path class="st4" d="M81.8,56.3c0,13.3-10.8,24.1-24.1,24.1c-13.3,0-24.1-10.8-24.1-24.1c0-13.3,10.8-24.1,24.1-24.1
					C71,32.2,81.8,43,81.8,56.3z"/>
				<path class="st4" d="M91,56.3c0,18.4-14.9,33.3-33.3,33.3c-18.4,0-33.3-14.9-33.3-33.3C24.5,37.9,39.4,23,57.7,23
					C76.1,23,91,37.9,91,56.3z"/>
				<path class="st4" d="M100.9,56.3c0,23.8-19.3,43.2-43.2,43.2c-23.8,0-43.2-19.3-43.2-43.2c0-23.8,19.3-43.2,43.2-43.2
					C81.6,13.1,100.9,32.4,100.9,56.3z"/>
				<path class="st4" d="M110.8,56.3c0,29.3-23.7,53.1-53.1,53.1c-29.3,0-53.1-23.8-53.1-53.1c0-29.3,23.8-53.1,53.1-53.1
					C87.1,3.2,110.8,26.9,110.8,56.3z"/>
				<path class="st4" d="M179.4,56.3c0,8.2-6.7,14.9-14.9,14.9c-8.2,0-14.9-6.7-14.9-14.9c0-8.2,6.7-14.9,14.9-14.9
					C172.7,41.4,179.4,48,179.4,56.3z"/>
				<path class="st4" d="M188.6,56.3c0,13.3-10.8,24.1-24.1,24.1c-13.3,0-24.1-10.8-24.1-24.1c0-13.3,10.8-24.1,24.1-24.1
					C177.8,32.2,188.6,43,188.6,56.3z"/>
				<path class="st4" d="M197.8,56.3c0,18.4-14.9,33.3-33.3,33.3c-18.4,0-33.3-14.9-33.3-33.3c0-18.4,14.9-33.3,33.3-33.3
					C182.9,23,197.8,37.9,197.8,56.3z"/>
				<path class="st4" d="M207.7,56.3c0,23.8-19.3,43.2-43.2,43.2c-23.8,0-43.2-19.3-43.2-43.2c0-23.8,19.3-43.2,43.2-43.2
					C188.4,13.1,207.7,32.4,207.7,56.3z"/>
				<path class="st4" d="M217.6,56.3c0,29.3-23.7,53.1-53.1,53.1c-29.3,0-53.1-23.8-53.1-53.1c0-29.3,23.8-53.1,53.1-53.1
					C193.8,3.2,217.6,26.9,217.6,56.3z"/>
				<path class="st4" d="M286.5,56.3c0,8.2-6.7,14.9-14.9,14.9c-8.2,0-14.9-6.7-14.9-14.9c0-8.2,6.7-14.9,14.9-14.9
					C279.9,41.4,286.5,48,286.5,56.3z"/>
				<path class="st4" d="M295.8,56.3c0,13.3-10.8,24.1-24.1,24.1c-13.3,0-24.1-10.8-24.1-24.1c0-13.3,10.8-24.1,24.1-24.1
					C285,32.2,295.8,43,295.8,56.3z"/>
				<path class="st4" d="M304.9,56.3c0,18.4-14.9,33.3-33.3,33.3c-18.4,0-33.3-14.9-33.3-33.3c0-18.4,14.9-33.3,33.3-33.3
					C290,23,304.9,37.9,304.9,56.3z"/>
				<path class="st4" d="M314.8,56.3c0,23.8-19.3,43.2-43.2,43.2c-23.8,0-43.2-19.3-43.2-43.2c0-23.8,19.3-43.2,43.2-43.2
					C295.5,13.1,314.8,32.4,314.8,56.3z"/>
				<path class="st4" d="M324.7,56.3c0,29.3-23.7,53.1-53.1,53.1c-29.3,0-53.1-23.8-53.1-53.1c0-29.3,23.8-53.1,53.1-53.1
					C301,3.2,324.7,26.9,324.7,56.3z"/>
			</g>
		</g>
	</g>
</g>
</svg>
