<svg enable-background="new 0 0 367.1 158.3" viewBox="0 0 367.1 158.3" xmlns="http://www.w3.org/2000/svg" xmlns:xlink="http://www.w3.org/1999/xlink"><clipPath id="a"><path d="m2 1.3h363.1v155.5h-363.1z"/></clipPath><mask id="b" height="28.8" maskUnits="userSpaceOnUse" width="40.3" x="168.6" y="123.9"><g clip-path="url(#c)"><image height="60" overflow="visible" transform="matrix(.48 0 0 .48 168.5685 123.8646)" width="84" xlink:href="8E59444970CDB0EC.jpg"/></g></mask><clipPath id="c" clip-path="url(#a)"><path d="m168.6 123.9h40.3v28.8h-40.3z"/></clipPath><clipPath id="d"><path d="m168.6 123.9h40.3v28.8h-40.3z"/></clipPath><mask id="e" height="34.6" maskUnits="userSpaceOnUse" width="44.2" x="40.1" y="117.7"><g clip-path="url(#f)"><image height="72" overflow="visible" transform="matrix(.48 0 0 .48 40.076 117.7316)" width="92" xlink:href="8E59444970CDB0ED.jpg"/></g></mask><clipPath id="f" clip-path="url(#a)"><path d="m40.1 117.7h44.2v34.6h-44.2z"/></clipPath><clipPath id="g"><path d="m40.1 117.7h44.2v34.6h-44.2z"/></clipPath><mask id="h" height="34.6" maskUnits="userSpaceOnUse" width="44.2" x="219.6" y="-5.7"><g clip-path="url(#i)"><image height="72" overflow="visible" transform="matrix(.48 0 0 .48 219.6143 -5.7286)" width="92" xlink:href="8E59444970CDB0EB.jpg"/></g></mask><clipPath id="i" clip-path="url(#a)"><path d="m219.6-5.7h44.2v34.6h-44.2z"/></clipPath><clipPath id="j"><path d="m219.6-5.7h44.2v34.6h-44.2z"/></clipPath><mask id="k" height="40.3" maskUnits="userSpaceOnUse" width="51.8" x="323.2" y="117.7"><g clip-path="url(#l)"><image height="84" overflow="visible" transform="matrix(.48 0 0 .48 323.1695 117.7315)" width="108" xlink:href="8E59444970CDB0F4.jpg"/></g></mask><clipPath id="l" clip-path="url(#a)"><path d="m323.2 117.7h51.8v40.3h-51.8z"/></clipPath><clipPath id="m"><path d="m323.2 117.7h51.8v40.3h-51.8z"/></clipPath><mask id="n" height="34.6" maskUnits="userSpaceOnUse" width="44.2" x="219.6" y="71.8"><g clip-path="url(#o)"><image height="72" overflow="visible" transform="matrix(.48 0 0 .48 219.6143 71.8445)" width="92" xlink:href="8E59444970CDB0F7.jpg"/></g></mask><clipPath id="o" clip-path="url(#a)"><path d="m219.6 71.8h44.2v34.6h-44.2z"/></clipPath><clipPath id="p"><path d="m219.6 71.8h44.2v34.6h-44.2z"/></clipPath><mask id="q" height="21.1" maskUnits="userSpaceOnUse" width="30.7" x="-7" y="-.8"><g clip-path="url(#r)"><image height="44" overflow="visible" transform="matrix(.48 0 0 .48 -7.009 -.8441)" width="64" xlink:href="8E59444970CDB0F5.jpg"/></g></mask><clipPath id="r" clip-path="url(#a)"><path d="m-7-.8h30.7v21.1h-30.7z"/></clipPath><clipPath id="s"><path d="m-7-.8h30.7v21.1h-30.7z"/></clipPath><mask id="t" height="69.1" maskUnits="userSpaceOnUse" width="82.6" x="65.9" y="5.4"><g clip-path="url(#u)"><image height="144" overflow="visible" transform="matrix(.48 0 0 .48 65.9197 5.4126)" width="172" xlink:href="8E59444970CDB0FB.jpg"/></g></mask><clipPath id="u" clip-path="url(#a)"><path d="m65.9 5.4h82.6v69.1h-82.6z"/></clipPath><clipPath id="v"><path d="m65.9 5.4h82.6v69.1h-82.6z"/></clipPath><g clip-path="url(#a)" mask="url(#b)"><path clip-path="url(#d)" d="m188.4 151.3c6 0 10.8-4.6 10.8-10.2s-4.8-10.2-10.8-10.2-10.8 4.6-10.8 10.2 4.8 10.2 10.8 10.2" fill="#00aeef"/></g><g clip-path="url(#a)" mask="url(#e)"><path clip-path="url(#g)" d="m62 149.9c7.1 0 12.9-5.6 12.9-12.6s-5.8-12.6-12.9-12.6-12.9 5.6-12.9 12.6 5.8 12.6 12.9 12.6" fill="#00aeef"/></g><g clip-path="url(#a)" mask="url(#h)"><path clip-path="url(#j)" d="m241.5 26.5c7.1 0 12.9-5.6 12.9-12.6s-5.8-12.6-12.9-12.6-12.9 5.6-12.9 12.6c0 6.9 5.8 12.6 12.9 12.6" fill="#00aeef"/></g><g clip-path="url(#a)" mask="url(#k)"><path clip-path="url(#m)" d="m348.6 156.8c9.1 0 16.5-7.2 16.5-16 0-8.9-7.4-16-16.5-16s-16.5 7.2-16.5 16c.1 8.8 7.4 16 16.5 16" fill="#00aeef"/></g><g clip-path="url(#a)" mask="url(#n)"><path clip-path="url(#p)" d="m241.5 104c7.1 0 12.9-5.6 12.9-12.6s-5.8-12.6-12.9-12.6-12.9 5.6-12.9 12.6 5.8 12.6 12.9 12.6" fill="#00aeef"/></g><g clip-path="url(#a)" mask="url(#q)"><path clip-path="url(#s)" d="m8.2 18.7c3.5 0 6.3-2.8 6.3-6.3s-2.8-6.3-6.3-6.3-6.2 2.9-6.2 6.3c0 3.5 2.8 6.3 6.2 6.3" fill="#00aeef"/></g><g clip-path="url(#a)" mask="url(#t)"><path clip-path="url(#v)" d="m106.5 73.9c17.4 0 31.6-13.8 31.6-30.8s-14.1-30.8-31.6-30.8c-17.4 0-31.6 13.8-31.6 30.8 0 17.1 14.2 30.8 31.6 30.8" fill="#00aeef"/></g></svg>