<?xml version="1.0" encoding="utf-8"?>
<!-- Generator: Adobe Illustrator 25.2.3, SVG Export Plug-In . SVG Version: 6.00 Build 0)  -->
<svg version="1.1" id="Layer_1" xmlns="http://www.w3.org/2000/svg" xmlns:xlink="http://www.w3.org/1999/xlink" x="0px" y="0px"
	 viewBox="0 0 329.4 158.3" style="enable-background:new 0 0 329.4 158.3;" xml:space="preserve">
<style type="text/css">
	.st0{fill:none;stroke:#FFFFFF;stroke-width:2;}
	.st1{fill:none;stroke:#FFFFFF;}
	.st2{fill:none;stroke:#FFFFFF;stroke-width:0.75;}
</style>
<g>
	<path class="st0" d="M2.4,130.2c0,0,40.9-75,139.5-106.4C240.4-7.6-14.8,150.9,84.8,155.4C184.4,160,258.3,21,298.6,10.8
		C339,0.6,276.1,199.8,12,83.2"/>
	<path class="st1" d="M13.7,10.9c0,0,61.1,82.5,177.8,65.8C308.3,60.1,327.2,1.4,327.2,1.4"/>
	<path class="st2" d="M13.6,43.7c0,0,61.1,82.5,177.9,65.8s135.7-75.3,135.7-75.3"/>
	<path class="st2" d="M248.6,1.3c0,0-27.3,114.3,47.7,155.6"/>
</g>
</svg>
